<?xml version="1.0" encoding="UTF-8" standalone="no"?>
<!-- Created with Inkscape (http://www.inkscape.org/) -->

<svg
   width="210mm"
   height="297mm"
   viewBox="0 0 210 297"
   version="1.1"
   id="svg5"
   sodipodi:docname="Zeichnung.svg"
   inkscape:version="1.1.1 (3bf5ae0d25, 2021-09-20)"
   xmlns:inkscape="http://www.inkscape.org/namespaces/inkscape"
   xmlns:sodipodi="http://sodipodi.sourceforge.net/DTD/sodipodi-0.dtd"
   xmlns="http://www.w3.org/2000/svg"
   xmlns:svg="http://www.w3.org/2000/svg">
  <sodipodi:namedview
     id="namedview7"
     pagecolor="#ffffff"
     bordercolor="#666666"
     borderopacity="1.0"
     inkscape:pageshadow="2"
     inkscape:pageopacity="0.0"
     inkscape:pagecheckerboard="0"
     inkscape:document-units="mm"
     showgrid="false"
     inkscape:zoom="1.4823793"
     inkscape:cx="343.0296"
     inkscape:cy="452.98796"
     inkscape:window-width="1920"
     inkscape:window-height="1017"
     inkscape:window-x="-8"
     inkscape:window-y="-8"
     inkscape:window-maximized="1"
     inkscape:current-layer="layer1" />
  <defs
     id="defs2">
    <clipPath
       clipPathUnits="userSpaceOnUse"
       id="clipEmfPath1">
      <path
         d="M 6.1984252,9.2976378 L 286.16063,9.2976378 L 286.16063,396.69921 L 6.1984252,396.69921 z"
         id="path824" />
    </clipPath>
    <pattern
       id="EMFhbasepattern"
       patternUnits="userSpaceOnUse"
       width="6"
       height="6"
       x="0"
       y="0" />
  </defs>
  <g
     inkscape:label="Ebene 1"
     inkscape:groupmode="layer"
     id="layer1">
    <path
       id="path830"
       style="fill:none;fill-opacity:1;fill-rule:evenodd;stroke:#000000;stroke-width:0.999999;stroke-opacity:1"
       d="M 370.86914 236.50781 C 363.54378 236.4849 355.89172 239.13639 349.54297 244.51562 C 336.37132 255.62112 333.72478 274.0868 343.60352 285.77344 C 346.83629 289.59782 351.00961 292.22642 355.62305 293.64258 C 350.1138 303.83206 347.02539 315.24407 347.02539 327.29102 C 347.02539 350.28659 358.23876 370.94107 376.07031 385.20117 C 367.46217 388.10297 358.67803 393.47882 350.96484 401.08984 C 341.95336 410.01151 335.99792 420.44706 333.5 430.38672 C 327.82044 434.50133 323.55683 439.60407 321.11719 444.88672 C 318.853 445.6483 316.58689 446.60222 314.35547 447.77148 C 298.21374 456.29432 290.01285 472.43688 296.01758 483.86523 C 302.0223 495.22901 319.97155 497.61853 336.11328 489.0957 C 342.21758 485.89705 347.18367 481.59889 350.67773 476.87305 C 351.24675 478.22916 351.89681 479.57958 352.62695 480.91797 C 350.24676 491.8373 348.89844 504.17119 348.89844 517.24609 C 348.89844 539.71668 352.85921 560.04803 359.25195 574.68555 C 342.96556 577.9826 331.40039 586.27206 331.40039 596.01758 C 331.40039 608.67272 350.89907 618.875 374.91797 618.875 C 399.00142 618.875 418.50195 608.67272 418.50195 596.01758 C 418.50195 595.86797 418.49572 595.71921 418.49023 595.57031 C 416.31061 591.37633 414.94922 586.1152 414.94922 580.32812 C 414.94922 566.83366 421.98864 555.92188 430.64062 555.92188 C 439.29257 555.92188 446.26562 566.83366 446.26562 580.32812 C 446.26562 585.88589 445.02298 590.96283 443.00977 595.07617 C 442.9855 595.38825 442.97266 595.70206 442.97266 596.01758 C 442.97266 608.67272 462.47134 618.875 486.49023 618.875 C 510.57369 618.875 530.07227 608.67272 530.07227 596.01758 C 530.07227 586.88548 519.91787 579.03262 505.21484 575.36719 C 511.78407 560.68275 515.86914 540.06721 515.86914 517.24609 C 515.86914 508.10302 515.20416 499.32648 513.99609 491.13477 C 516.60314 489.5914 518.97384 487.84417 521.08008 485.95312 C 522.69492 487.34656 524.44622 488.65934 526.32812 489.86914 C 541.63048 499.74788 559.77298 498.90974 566.68164 488.0625 C 573.65487 477.21525 566.87658 460.42745 551.57422 450.61328 C 548.47066 448.61813 545.25588 447.06443 542.04492 445.93359 C 540.67662 442.08961 538.66545 438.24376 536.01367 434.60156 C 534.19287 432.11569 532.18832 429.8837 530.06641 427.92773 C 527.59878 419.66202 522.9775 411.16737 516.32031 403.48047 C 509.29662 395.39566 501.05714 389.40603 492.78906 385.8418 C 511.09187 371.56343 522.64844 350.6339 522.64844 327.29102 C 522.64844 317.36957 520.55041 307.87876 516.73438 299.14648 C 522.6838 296.89777 527.92453 292.85942 531.55859 287.19531 C 540.92079 272.6032 536.07785 252.78094 520.71094 242.9668 C 505.40858 233.08806 485.32899 236.89613 475.9668 251.48828 C 474.80206 253.30365 473.85712 255.20039 473.125 257.14844 C 461.55254 252.1601 448.56147 249.35742 434.83594 249.35742 C 421.15557 249.35742 408.20579 252.14009 396.66211 257.09766 C 395.84916 252.93098 394.04322 248.98932 391.18945 245.61328 C 386.09573 239.58738 378.6671 236.5322 370.86914 236.50781 z "
       transform="scale(0.26458333)" />
  </g>
</svg>
